<svg xmlns="http://www.w3.org/2000/svg" viewBox="0 0 24 24"><g transform="translate(-1568 -947)"><rect width="24" height="24" transform="translate(1568 947)" fill="#dbdbdb"/><g transform="translate(1466 765)"><path d="M2.875,5.75A2.875,2.875,0,1,1,5.75,2.875,2.879,2.879,0,0,1,2.875,5.75Zm0-5A2.125,2.125,0,1,0,5,2.875,2.13,2.13,0,0,0,2.875.75Z" transform="translate(111.125 188.625)" fill="#0b032d"/><path d="M8.965,4.25a.378.378,0,0,1-.375-.375C8.59,2.15,6.83.75,4.67.75S.75,2.15.75,3.875a.378.378,0,0,1-.375.375A.378.378,0,0,1,0,3.875C0,1.74,2.095,0,4.67,0S9.34,1.74,9.34,3.875A.378.378,0,0,1,8.965,4.25Z" transform="translate(109.33 195.125)" fill="#0b032d"/><path d="M0,0H12V12H0Z" transform="translate(108 188)" fill="none" opacity="0"/></g></g></svg>
